<?xml version="1.0" encoding="utf-8" standalone="no"?>
<!DOCTYPE svg PUBLIC "-//W3C//DTD SVG 1.1//EN"
  "http://www.w3.org/Graphics/SVG/1.1/DTD/svg11.dtd">
<svg xmlns:xlink="http://www.w3.org/1999/xlink" width="576pt" height="576pt" viewBox="0 0 576 576" xmlns="http://www.w3.org/2000/svg" version="1.1">
 <metadata>
  <rdf:RDF xmlns:dc="http://purl.org/dc/elements/1.1/" xmlns:cc="http://creativecommons.org/ns#" xmlns:rdf="http://www.w3.org/1999/02/22-rdf-syntax-ns#">
   <cc:Work>
    <dc:type rdf:resource="http://purl.org/dc/dcmitype/StillImage"/>
    <dc:date>2024-11-06T17:18:40.534048</dc:date>
    <dc:format>image/svg+xml</dc:format>
    <dc:creator>
     <cc:Agent>
      <dc:title>Matplotlib v3.8.0, https://matplotlib.org/</dc:title>
     </cc:Agent>
    </dc:creator>
   </cc:Work>
  </rdf:RDF>
 </metadata>
 <defs>
  <style type="text/css">*{stroke-linejoin: round; stroke-linecap: butt}</style>
 </defs>
 <g id="figure_1">
  <g id="patch_1">
   <path d="M 0 576 
L 576 576 
L 576 0 
L 0 0 
z
" style="fill: #ffffff"/>
  </g>
  <g id="axes_1">
   <g id="patch_2">
    <path d="M 82.37 501.46 
L 469.901143 501.46 
L 469.901143 107.441143 
L 82.37 107.441143 
z
" style="fill: #ffffff"/>
   </g>
   <g id="matplotlib.axis_1">
    <g id="xtick_1">
     <g id="line2d_1">
      <path d="M 82.967519 501.46 
L 82.967519 107.441143 
" clip-path="url(#pa2d8422935)" style="fill: none; stroke-dasharray: 3.7,1.6; stroke-dashoffset: 0; stroke: #cccccc; stroke-opacity: 0.8"/>
     </g>
     <g id="text_1">
      <!-- 10 -->
      <g style="fill: #262626" transform="translate(74.070019 524.4125) scale(0.16 -0.16)">
       <defs>
        <path id="ArialMT-31" d="M 2384 0 
L 1822 0 
L 1822 3584 
Q 1619 3391 1289 3197 
Q 959 3003 697 2906 
L 697 3450 
Q 1169 3672 1522 3987 
Q 1875 4303 2022 4600 
L 2384 4600 
L 2384 0 
z
" transform="scale(0.015625)"/>
        <path id="ArialMT-30" d="M 266 2259 
Q 266 3072 433 3567 
Q 600 4063 929 4331 
Q 1259 4600 1759 4600 
Q 2128 4600 2406 4451 
Q 2684 4303 2865 4023 
Q 3047 3744 3150 3342 
Q 3253 2941 3253 2259 
Q 3253 1453 3087 958 
Q 2922 463 2592 192 
Q 2263 -78 1759 -78 
Q 1097 -78 719 397 
Q 266 969 266 2259 
z
M 844 2259 
Q 844 1131 1108 757 
Q 1372 384 1759 384 
Q 2147 384 2411 759 
Q 2675 1134 2675 2259 
Q 2675 3391 2411 3762 
Q 2147 4134 1753 4134 
Q 1366 4134 1134 3806 
Q 844 3388 844 2259 
z
" transform="scale(0.015625)"/>
       </defs>
       <use xlink:href="#ArialMT-31"/>
       <use xlink:href="#ArialMT-30" x="55.615234"/>
      </g>
     </g>
    </g>
    <g id="xtick_2">
     <g id="line2d_2">
      <path d="M 166.386368 501.46 
L 166.386368 107.441143 
" clip-path="url(#pa2d8422935)" style="fill: none; stroke-dasharray: 3.7,1.6; stroke-dashoffset: 0; stroke: #cccccc; stroke-opacity: 0.8"/>
     </g>
     <g id="text_2">
      <!-- 20 -->
      <g style="fill: #262626" transform="translate(157.488868 524.4125) scale(0.16 -0.16)">
       <defs>
        <path id="ArialMT-32" d="M 3222 541 
L 3222 0 
L 194 0 
Q 188 203 259 391 
Q 375 700 629 1000 
Q 884 1300 1366 1694 
Q 2113 2306 2375 2664 
Q 2638 3022 2638 3341 
Q 2638 3675 2398 3904 
Q 2159 4134 1775 4134 
Q 1369 4134 1125 3890 
Q 881 3647 878 3216 
L 300 3275 
Q 359 3922 746 4261 
Q 1134 4600 1788 4600 
Q 2447 4600 2831 4234 
Q 3216 3869 3216 3328 
Q 3216 3053 3103 2787 
Q 2991 2522 2730 2228 
Q 2469 1934 1863 1422 
Q 1356 997 1212 845 
Q 1069 694 975 541 
L 3222 541 
z
" transform="scale(0.015625)"/>
       </defs>
       <use xlink:href="#ArialMT-32"/>
       <use xlink:href="#ArialMT-30" x="55.615234"/>
      </g>
     </g>
    </g>
    <g id="xtick_3">
     <g id="line2d_3">
      <path d="M 249.805218 501.46 
L 249.805218 107.441143 
" clip-path="url(#pa2d8422935)" style="fill: none; stroke-dasharray: 3.7,1.6; stroke-dashoffset: 0; stroke: #cccccc; stroke-opacity: 0.8"/>
     </g>
     <g id="text_3">
      <!-- 30 -->
      <g style="fill: #262626" transform="translate(240.907718 524.4125) scale(0.16 -0.16)">
       <defs>
        <path id="ArialMT-33" d="M 269 1209 
L 831 1284 
Q 928 806 1161 595 
Q 1394 384 1728 384 
Q 2125 384 2398 659 
Q 2672 934 2672 1341 
Q 2672 1728 2419 1979 
Q 2166 2231 1775 2231 
Q 1616 2231 1378 2169 
L 1441 2663 
Q 1497 2656 1531 2656 
Q 1891 2656 2178 2843 
Q 2466 3031 2466 3422 
Q 2466 3731 2256 3934 
Q 2047 4138 1716 4138 
Q 1388 4138 1169 3931 
Q 950 3725 888 3313 
L 325 3413 
Q 428 3978 793 4289 
Q 1159 4600 1703 4600 
Q 2078 4600 2393 4439 
Q 2709 4278 2876 4000 
Q 3044 3722 3044 3409 
Q 3044 3113 2884 2869 
Q 2725 2625 2413 2481 
Q 2819 2388 3044 2092 
Q 3269 1797 3269 1353 
Q 3269 753 2831 336 
Q 2394 -81 1725 -81 
Q 1122 -81 723 278 
Q 325 638 269 1209 
z
" transform="scale(0.015625)"/>
       </defs>
       <use xlink:href="#ArialMT-33"/>
       <use xlink:href="#ArialMT-30" x="55.615234"/>
      </g>
     </g>
    </g>
    <g id="xtick_4">
     <g id="line2d_4">
      <path d="M 333.224067 501.46 
L 333.224067 107.441143 
" clip-path="url(#pa2d8422935)" style="fill: none; stroke-dasharray: 3.7,1.6; stroke-dashoffset: 0; stroke: #cccccc; stroke-opacity: 0.8"/>
     </g>
     <g id="text_4">
      <!-- 40 -->
      <g style="fill: #262626" transform="translate(324.326567 524.4125) scale(0.16 -0.16)">
       <defs>
        <path id="ArialMT-34" d="M 2069 0 
L 2069 1097 
L 81 1097 
L 81 1613 
L 2172 4581 
L 2631 4581 
L 2631 1613 
L 3250 1613 
L 3250 1097 
L 2631 1097 
L 2631 0 
L 2069 0 
z
M 2069 1613 
L 2069 3678 
L 634 1613 
L 2069 1613 
z
" transform="scale(0.015625)"/>
       </defs>
       <use xlink:href="#ArialMT-34"/>
       <use xlink:href="#ArialMT-30" x="55.615234"/>
      </g>
     </g>
    </g>
    <g id="xtick_5">
     <g id="line2d_5">
      <path d="M 416.642917 501.46 
L 416.642917 107.441143 
" clip-path="url(#pa2d8422935)" style="fill: none; stroke-dasharray: 3.7,1.6; stroke-dashoffset: 0; stroke: #cccccc; stroke-opacity: 0.8"/>
     </g>
     <g id="text_5">
      <!-- 50 -->
      <g style="fill: #262626" transform="translate(407.745417 524.4125) scale(0.16 -0.16)">
       <defs>
        <path id="ArialMT-35" d="M 266 1200 
L 856 1250 
Q 922 819 1161 601 
Q 1400 384 1738 384 
Q 2144 384 2425 690 
Q 2706 997 2706 1503 
Q 2706 1984 2436 2262 
Q 2166 2541 1728 2541 
Q 1456 2541 1237 2417 
Q 1019 2294 894 2097 
L 366 2166 
L 809 4519 
L 3088 4519 
L 3088 3981 
L 1259 3981 
L 1013 2750 
Q 1425 3038 1878 3038 
Q 2478 3038 2890 2622 
Q 3303 2206 3303 1553 
Q 3303 931 2941 478 
Q 2500 -78 1738 -78 
Q 1113 -78 717 272 
Q 322 622 266 1200 
z
" transform="scale(0.015625)"/>
       </defs>
       <use xlink:href="#ArialMT-35"/>
       <use xlink:href="#ArialMT-30" x="55.615234"/>
      </g>
     </g>
    </g>
    <g id="text_6">
     <!-- True Values -->
     <g style="fill: #262626" transform="translate(210.135571 549.487031) scale(0.25 -0.25)">
      <defs>
       <path id="ArialMT-54" d="M 1659 0 
L 1659 4041 
L 150 4041 
L 150 4581 
L 3781 4581 
L 3781 4041 
L 2266 4041 
L 2266 0 
L 1659 0 
z
" transform="scale(0.015625)"/>
       <path id="ArialMT-72" d="M 416 0 
L 416 3319 
L 922 3319 
L 922 2816 
Q 1116 3169 1280 3281 
Q 1444 3394 1641 3394 
Q 1925 3394 2219 3213 
L 2025 2691 
Q 1819 2813 1613 2813 
Q 1428 2813 1281 2702 
Q 1134 2591 1072 2394 
Q 978 2094 978 1738 
L 978 0 
L 416 0 
z
" transform="scale(0.015625)"/>
       <path id="ArialMT-75" d="M 2597 0 
L 2597 488 
Q 2209 -75 1544 -75 
Q 1250 -75 995 37 
Q 741 150 617 320 
Q 494 491 444 738 
Q 409 903 409 1263 
L 409 3319 
L 972 3319 
L 972 1478 
Q 972 1038 1006 884 
Q 1059 663 1231 536 
Q 1403 409 1656 409 
Q 1909 409 2131 539 
Q 2353 669 2445 892 
Q 2538 1116 2538 1541 
L 2538 3319 
L 3100 3319 
L 3100 0 
L 2597 0 
z
" transform="scale(0.015625)"/>
       <path id="ArialMT-65" d="M 2694 1069 
L 3275 997 
Q 3138 488 2766 206 
Q 2394 -75 1816 -75 
Q 1088 -75 661 373 
Q 234 822 234 1631 
Q 234 2469 665 2931 
Q 1097 3394 1784 3394 
Q 2450 3394 2872 2941 
Q 3294 2488 3294 1666 
Q 3294 1616 3291 1516 
L 816 1516 
Q 847 969 1125 678 
Q 1403 388 1819 388 
Q 2128 388 2347 550 
Q 2566 713 2694 1069 
z
M 847 1978 
L 2700 1978 
Q 2663 2397 2488 2606 
Q 2219 2931 1791 2931 
Q 1403 2931 1139 2672 
Q 875 2413 847 1978 
z
" transform="scale(0.015625)"/>
       <path id="ArialMT-20" transform="scale(0.015625)"/>
       <path id="ArialMT-56" d="M 1803 0 
L 28 4581 
L 684 4581 
L 1875 1253 
Q 2019 853 2116 503 
Q 2222 878 2363 1253 
L 3600 4581 
L 4219 4581 
L 2425 0 
L 1803 0 
z
" transform="scale(0.015625)"/>
       <path id="ArialMT-61" d="M 2588 409 
Q 2275 144 1986 34 
Q 1697 -75 1366 -75 
Q 819 -75 525 192 
Q 231 459 231 875 
Q 231 1119 342 1320 
Q 453 1522 633 1644 
Q 813 1766 1038 1828 
Q 1203 1872 1538 1913 
Q 2219 1994 2541 2106 
Q 2544 2222 2544 2253 
Q 2544 2597 2384 2738 
Q 2169 2928 1744 2928 
Q 1347 2928 1158 2789 
Q 969 2650 878 2297 
L 328 2372 
Q 403 2725 575 2942 
Q 747 3159 1072 3276 
Q 1397 3394 1825 3394 
Q 2250 3394 2515 3294 
Q 2781 3194 2906 3042 
Q 3031 2891 3081 2659 
Q 3109 2516 3109 2141 
L 3109 1391 
Q 3109 606 3145 398 
Q 3181 191 3288 0 
L 2700 0 
Q 2613 175 2588 409 
z
M 2541 1666 
Q 2234 1541 1622 1453 
Q 1275 1403 1131 1340 
Q 988 1278 909 1158 
Q 831 1038 831 891 
Q 831 666 1001 516 
Q 1172 366 1500 366 
Q 1825 366 2078 508 
Q 2331 650 2450 897 
Q 2541 1088 2541 1459 
L 2541 1666 
z
" transform="scale(0.015625)"/>
       <path id="ArialMT-6c" d="M 409 0 
L 409 4581 
L 972 4581 
L 972 0 
L 409 0 
z
" transform="scale(0.015625)"/>
       <path id="ArialMT-73" d="M 197 991 
L 753 1078 
Q 800 744 1014 566 
Q 1228 388 1613 388 
Q 2000 388 2187 545 
Q 2375 703 2375 916 
Q 2375 1106 2209 1216 
Q 2094 1291 1634 1406 
Q 1016 1563 777 1677 
Q 538 1791 414 1992 
Q 291 2194 291 2438 
Q 291 2659 392 2848 
Q 494 3038 669 3163 
Q 800 3259 1026 3326 
Q 1253 3394 1513 3394 
Q 1903 3394 2198 3281 
Q 2494 3169 2634 2976 
Q 2775 2784 2828 2463 
L 2278 2388 
Q 2241 2644 2061 2787 
Q 1881 2931 1553 2931 
Q 1166 2931 1000 2803 
Q 834 2675 834 2503 
Q 834 2394 903 2306 
Q 972 2216 1119 2156 
Q 1203 2125 1616 2013 
Q 2213 1853 2448 1751 
Q 2684 1650 2818 1456 
Q 2953 1263 2953 975 
Q 2953 694 2789 445 
Q 2625 197 2315 61 
Q 2006 -75 1616 -75 
Q 969 -75 630 194 
Q 291 463 197 991 
z
" transform="scale(0.015625)"/>
      </defs>
      <use xlink:href="#ArialMT-54"/>
      <use xlink:href="#ArialMT-72" x="57.333984"/>
      <use xlink:href="#ArialMT-75" x="90.634766"/>
      <use xlink:href="#ArialMT-65" x="146.25"/>
      <use xlink:href="#ArialMT-20" x="201.865234"/>
      <use xlink:href="#ArialMT-56" x="229.648438"/>
      <use xlink:href="#ArialMT-61" x="288.972656"/>
      <use xlink:href="#ArialMT-6c" x="344.587891"/>
      <use xlink:href="#ArialMT-75" x="366.804688"/>
      <use xlink:href="#ArialMT-65" x="422.419922"/>
      <use xlink:href="#ArialMT-73" x="478.035156"/>
     </g>
    </g>
   </g>
   <g id="matplotlib.axis_2">
    <g id="ytick_1">
     <g id="line2d_6">
      <path d="M 82.37 470.949961 
L 469.901143 470.949961 
" clip-path="url(#pa2d8422935)" style="fill: none; stroke-dasharray: 3.7,1.6; stroke-dashoffset: 0; stroke: #cccccc; stroke-opacity: 0.8"/>
     </g>
     <g id="text_7">
      <!-- 10 -->
      <g style="fill: #262626" transform="translate(53.075 476.676211) scale(0.16 -0.16)">
       <use xlink:href="#ArialMT-31"/>
       <use xlink:href="#ArialMT-30" x="55.615234"/>
      </g>
     </g>
    </g>
    <g id="ytick_2">
     <g id="line2d_7">
      <path d="M 82.37 401.296068 
L 469.901143 401.296068 
" clip-path="url(#pa2d8422935)" style="fill: none; stroke-dasharray: 3.7,1.6; stroke-dashoffset: 0; stroke: #cccccc; stroke-opacity: 0.8"/>
     </g>
     <g id="text_8">
      <!-- 20 -->
      <g style="fill: #262626" transform="translate(53.075 407.022318) scale(0.16 -0.16)">
       <use xlink:href="#ArialMT-32"/>
       <use xlink:href="#ArialMT-30" x="55.615234"/>
      </g>
     </g>
    </g>
    <g id="ytick_3">
     <g id="line2d_8">
      <path d="M 82.37 331.642175 
L 469.901143 331.642175 
" clip-path="url(#pa2d8422935)" style="fill: none; stroke-dasharray: 3.7,1.6; stroke-dashoffset: 0; stroke: #cccccc; stroke-opacity: 0.8"/>
     </g>
     <g id="text_9">
      <!-- 30 -->
      <g style="fill: #262626" transform="translate(53.075 337.368425) scale(0.16 -0.16)">
       <use xlink:href="#ArialMT-33"/>
       <use xlink:href="#ArialMT-30" x="55.615234"/>
      </g>
     </g>
    </g>
    <g id="ytick_4">
     <g id="line2d_9">
      <path d="M 82.37 261.988282 
L 469.901143 261.988282 
" clip-path="url(#pa2d8422935)" style="fill: none; stroke-dasharray: 3.7,1.6; stroke-dashoffset: 0; stroke: #cccccc; stroke-opacity: 0.8"/>
     </g>
     <g id="text_10">
      <!-- 40 -->
      <g style="fill: #262626" transform="translate(53.075 267.714532) scale(0.16 -0.16)">
       <use xlink:href="#ArialMT-34"/>
       <use xlink:href="#ArialMT-30" x="55.615234"/>
      </g>
     </g>
    </g>
    <g id="ytick_5">
     <g id="line2d_10">
      <path d="M 82.37 192.334389 
L 469.901143 192.334389 
" clip-path="url(#pa2d8422935)" style="fill: none; stroke-dasharray: 3.7,1.6; stroke-dashoffset: 0; stroke: #cccccc; stroke-opacity: 0.8"/>
     </g>
     <g id="text_11">
      <!-- 50 -->
      <g style="fill: #262626" transform="translate(53.075 198.060639) scale(0.16 -0.16)">
       <use xlink:href="#ArialMT-35"/>
       <use xlink:href="#ArialMT-30" x="55.615234"/>
      </g>
     </g>
    </g>
    <g id="ytick_6">
     <g id="line2d_11">
      <path d="M 82.37 122.680497 
L 469.901143 122.680497 
" clip-path="url(#pa2d8422935)" style="fill: none; stroke-dasharray: 3.7,1.6; stroke-dashoffset: 0; stroke: #cccccc; stroke-opacity: 0.8"/>
     </g>
     <g id="text_12">
      <!-- 60 -->
      <g style="fill: #262626" transform="translate(53.075 128.406747) scale(0.16 -0.16)">
       <defs>
        <path id="ArialMT-36" d="M 3184 3459 
L 2625 3416 
Q 2550 3747 2413 3897 
Q 2184 4138 1850 4138 
Q 1581 4138 1378 3988 
Q 1113 3794 959 3422 
Q 806 3050 800 2363 
Q 1003 2672 1297 2822 
Q 1591 2972 1913 2972 
Q 2475 2972 2870 2558 
Q 3266 2144 3266 1488 
Q 3266 1056 3080 686 
Q 2894 316 2569 119 
Q 2244 -78 1831 -78 
Q 1128 -78 684 439 
Q 241 956 241 2144 
Q 241 3472 731 4075 
Q 1159 4600 1884 4600 
Q 2425 4600 2770 4297 
Q 3116 3994 3184 3459 
z
M 888 1484 
Q 888 1194 1011 928 
Q 1134 663 1356 523 
Q 1578 384 1822 384 
Q 2178 384 2434 671 
Q 2691 959 2691 1453 
Q 2691 1928 2437 2201 
Q 2184 2475 1800 2475 
Q 1419 2475 1153 2201 
Q 888 1928 888 1484 
z
" transform="scale(0.015625)"/>
       </defs>
       <use xlink:href="#ArialMT-36"/>
       <use xlink:href="#ArialMT-30" x="55.615234"/>
      </g>
     </g>
    </g>
    <g id="text_13">
     <!-- Predicted Values -->
     <g style="fill: #262626" transform="translate(44.10625 398.02479) rotate(-90) scale(0.25 -0.25)">
      <defs>
       <path id="ArialMT-50" d="M 494 0 
L 494 4581 
L 2222 4581 
Q 2678 4581 2919 4538 
Q 3256 4481 3484 4323 
Q 3713 4166 3852 3881 
Q 3991 3597 3991 3256 
Q 3991 2672 3619 2267 
Q 3247 1863 2275 1863 
L 1100 1863 
L 1100 0 
L 494 0 
z
M 1100 2403 
L 2284 2403 
Q 2872 2403 3119 2622 
Q 3366 2841 3366 3238 
Q 3366 3525 3220 3729 
Q 3075 3934 2838 4000 
Q 2684 4041 2272 4041 
L 1100 4041 
L 1100 2403 
z
" transform="scale(0.015625)"/>
       <path id="ArialMT-64" d="M 2575 0 
L 2575 419 
Q 2259 -75 1647 -75 
Q 1250 -75 917 144 
Q 584 363 401 755 
Q 219 1147 219 1656 
Q 219 2153 384 2558 
Q 550 2963 881 3178 
Q 1213 3394 1622 3394 
Q 1922 3394 2156 3267 
Q 2391 3141 2538 2938 
L 2538 4581 
L 3097 4581 
L 3097 0 
L 2575 0 
z
M 797 1656 
Q 797 1019 1065 703 
Q 1334 388 1700 388 
Q 2069 388 2326 689 
Q 2584 991 2584 1609 
Q 2584 2291 2321 2609 
Q 2059 2928 1675 2928 
Q 1300 2928 1048 2622 
Q 797 2316 797 1656 
z
" transform="scale(0.015625)"/>
       <path id="ArialMT-69" d="M 425 3934 
L 425 4581 
L 988 4581 
L 988 3934 
L 425 3934 
z
M 425 0 
L 425 3319 
L 988 3319 
L 988 0 
L 425 0 
z
" transform="scale(0.015625)"/>
       <path id="ArialMT-63" d="M 2588 1216 
L 3141 1144 
Q 3050 572 2676 248 
Q 2303 -75 1759 -75 
Q 1078 -75 664 370 
Q 250 816 250 1647 
Q 250 2184 428 2587 
Q 606 2991 970 3192 
Q 1334 3394 1763 3394 
Q 2303 3394 2647 3120 
Q 2991 2847 3088 2344 
L 2541 2259 
Q 2463 2594 2264 2762 
Q 2066 2931 1784 2931 
Q 1359 2931 1093 2626 
Q 828 2322 828 1663 
Q 828 994 1084 691 
Q 1341 388 1753 388 
Q 2084 388 2306 591 
Q 2528 794 2588 1216 
z
" transform="scale(0.015625)"/>
       <path id="ArialMT-74" d="M 1650 503 
L 1731 6 
Q 1494 -44 1306 -44 
Q 1000 -44 831 53 
Q 663 150 594 308 
Q 525 466 525 972 
L 525 2881 
L 113 2881 
L 113 3319 
L 525 3319 
L 525 4141 
L 1084 4478 
L 1084 3319 
L 1650 3319 
L 1650 2881 
L 1084 2881 
L 1084 941 
Q 1084 700 1114 631 
Q 1144 563 1211 522 
Q 1278 481 1403 481 
Q 1497 481 1650 503 
z
" transform="scale(0.015625)"/>
      </defs>
      <use xlink:href="#ArialMT-50"/>
      <use xlink:href="#ArialMT-72" x="66.699219"/>
      <use xlink:href="#ArialMT-65" x="100"/>
      <use xlink:href="#ArialMT-64" x="155.615234"/>
      <use xlink:href="#ArialMT-69" x="211.230469"/>
      <use xlink:href="#ArialMT-63" x="233.447266"/>
      <use xlink:href="#ArialMT-74" x="283.447266"/>
      <use xlink:href="#ArialMT-65" x="311.230469"/>
      <use xlink:href="#ArialMT-64" x="366.845703"/>
      <use xlink:href="#ArialMT-20" x="422.460938"/>
      <use xlink:href="#ArialMT-56" x="450.244141"/>
      <use xlink:href="#ArialMT-61" x="509.568359"/>
      <use xlink:href="#ArialMT-6c" x="565.183594"/>
      <use xlink:href="#ArialMT-75" x="587.400391"/>
      <use xlink:href="#ArialMT-65" x="643.015625"/>
      <use xlink:href="#ArialMT-73" x="698.630859"/>
     </g>
    </g>
   </g>
   <g id="PathCollection_1">
    <defs>
     <path id="m507c50bbcf" d="M 0 3.872983 
C 1.027127 3.872983 2.012324 3.464901 2.738613 2.738613 
C 3.464901 2.012324 3.872983 1.027127 3.872983 0 
C 3.872983 -1.027127 3.464901 -2.012324 2.738613 -2.738613 
C 2.012324 -3.464901 1.027127 -3.872983 0 -3.872983 
C -1.027127 -3.872983 -2.012324 -3.464901 -2.738613 -2.738613 
C -3.464901 -2.012324 -3.872983 -1.027127 -3.872983 0 
C -3.872983 1.027127 -3.464901 2.012324 -2.738613 2.738613 
C -2.012324 3.464901 -1.027127 3.872983 0 3.872983 
z
" style="stroke: #ffffff; stroke-opacity: 0.6; stroke-width: 0.619677"/>
    </defs>
    <g clip-path="url(#pa2d8422935)">
     <use xlink:href="#m507c50bbcf" x="113.737904" y="483.550052" style="fill: #4c72b0; fill-opacity: 0.6; stroke: #ffffff; stroke-opacity: 0.6; stroke-width: 0.619677"/>
     <use xlink:href="#m507c50bbcf" x="99.985052" y="476.766944" style="fill: #4c72b0; fill-opacity: 0.6; stroke: #ffffff; stroke-opacity: 0.6; stroke-width: 0.619677"/>
     <use xlink:href="#m507c50bbcf" x="120.906061" y="458.833998" style="fill: #4c72b0; fill-opacity: 0.6; stroke: #ffffff; stroke-opacity: 0.6; stroke-width: 0.619677"/>
     <use xlink:href="#m507c50bbcf" x="119.578948" y="453.578875" style="fill: #4c72b0; fill-opacity: 0.6; stroke: #ffffff; stroke-opacity: 0.6; stroke-width: 0.619677"/>
     <use xlink:href="#m507c50bbcf" x="114.710932" y="446.26485" style="fill: #4c72b0; fill-opacity: 0.6; stroke: #ffffff; stroke-opacity: 0.6; stroke-width: 0.619677"/>
     <use xlink:href="#m507c50bbcf" x="132.785802" y="443.931683" style="fill: #4c72b0; fill-opacity: 0.6; stroke: #ffffff; stroke-opacity: 0.6; stroke-width: 0.619677"/>
     <use xlink:href="#m507c50bbcf" x="116.010458" y="437.542187" style="fill: #4c72b0; fill-opacity: 0.6; stroke: #ffffff; stroke-opacity: 0.6; stroke-width: 0.619677"/>
     <use xlink:href="#m507c50bbcf" x="115.967319" y="436.796293" style="fill: #4c72b0; fill-opacity: 0.6; stroke: #ffffff; stroke-opacity: 0.6; stroke-width: 0.619677"/>
     <use xlink:href="#m507c50bbcf" x="126.544055" y="423.744879" style="fill: #4c72b0; fill-opacity: 0.6; stroke: #ffffff; stroke-opacity: 0.6; stroke-width: 0.619677"/>
     <use xlink:href="#m507c50bbcf" x="142.174551" y="390.840982" style="fill: #4c72b0; fill-opacity: 0.6; stroke: #ffffff; stroke-opacity: 0.6; stroke-width: 0.619677"/>
     <use xlink:href="#m507c50bbcf" x="154.120521" y="389.228126" style="fill: #4c72b0; fill-opacity: 0.6; stroke: #ffffff; stroke-opacity: 0.6; stroke-width: 0.619677"/>
     <use xlink:href="#m507c50bbcf" x="161.947742" y="389.046199" style="fill: #4c72b0; fill-opacity: 0.6; stroke: #ffffff; stroke-opacity: 0.6; stroke-width: 0.619677"/>
     <use xlink:href="#m507c50bbcf" x="181.152356" y="389.022495" style="fill: #4c72b0; fill-opacity: 0.6; stroke: #ffffff; stroke-opacity: 0.6; stroke-width: 0.619677"/>
     <use xlink:href="#m507c50bbcf" x="184.440408" y="386.396983" style="fill: #4c72b0; fill-opacity: 0.6; stroke: #ffffff; stroke-opacity: 0.6; stroke-width: 0.619677"/>
     <use xlink:href="#m507c50bbcf" x="178.129704" y="385.574392" style="fill: #4c72b0; fill-opacity: 0.6; stroke: #ffffff; stroke-opacity: 0.6; stroke-width: 0.619677"/>
     <use xlink:href="#m507c50bbcf" x="183.00511" y="385.44596" style="fill: #4c72b0; fill-opacity: 0.6; stroke: #ffffff; stroke-opacity: 0.6; stroke-width: 0.619677"/>
     <use xlink:href="#m507c50bbcf" x="186.732014" y="385.087233" style="fill: #4c72b0; fill-opacity: 0.6; stroke: #ffffff; stroke-opacity: 0.6; stroke-width: 0.619677"/>
     <use xlink:href="#m507c50bbcf" x="198.635222" y="384.348936" style="fill: #4c72b0; fill-opacity: 0.6; stroke: #ffffff; stroke-opacity: 0.6; stroke-width: 0.619677"/>
     <use xlink:href="#m507c50bbcf" x="192.763823" y="383.146838" style="fill: #4c72b0; fill-opacity: 0.6; stroke: #ffffff; stroke-opacity: 0.6; stroke-width: 0.619677"/>
     <use xlink:href="#m507c50bbcf" x="204.570449" y="380.642789" style="fill: #4c72b0; fill-opacity: 0.6; stroke: #ffffff; stroke-opacity: 0.6; stroke-width: 0.619677"/>
     <use xlink:href="#m507c50bbcf" x="207.009003" y="377.583118" style="fill: #4c72b0; fill-opacity: 0.6; stroke: #ffffff; stroke-opacity: 0.6; stroke-width: 0.619677"/>
     <use xlink:href="#m507c50bbcf" x="209.481209" y="377.372943" style="fill: #4c72b0; fill-opacity: 0.6; stroke: #ffffff; stroke-opacity: 0.6; stroke-width: 0.619677"/>
     <use xlink:href="#m507c50bbcf" x="218.191381" y="366.291978" style="fill: #4c72b0; fill-opacity: 0.6; stroke: #ffffff; stroke-opacity: 0.6; stroke-width: 0.619677"/>
     <use xlink:href="#m507c50bbcf" x="200.738765" y="363.17491" style="fill: #4c72b0; fill-opacity: 0.6; stroke: #ffffff; stroke-opacity: 0.6; stroke-width: 0.619677"/>
     <use xlink:href="#m507c50bbcf" x="204.994363" y="360.23901" style="fill: #4c72b0; fill-opacity: 0.6; stroke: #ffffff; stroke-opacity: 0.6; stroke-width: 0.619677"/>
     <use xlink:href="#m507c50bbcf" x="214.998441" y="355.521909" style="fill: #4c72b0; fill-opacity: 0.6; stroke: #ffffff; stroke-opacity: 0.6; stroke-width: 0.619677"/>
     <use xlink:href="#m507c50bbcf" x="214.362602" y="353.4432" style="fill: #4c72b0; fill-opacity: 0.6; stroke: #ffffff; stroke-opacity: 0.6; stroke-width: 0.619677"/>
     <use xlink:href="#m507c50bbcf" x="217.226755" y="350.282403" style="fill: #4c72b0; fill-opacity: 0.6; stroke: #ffffff; stroke-opacity: 0.6; stroke-width: 0.619677"/>
     <use xlink:href="#m507c50bbcf" x="223.882797" y="350.205425" style="fill: #4c72b0; fill-opacity: 0.6; stroke: #ffffff; stroke-opacity: 0.6; stroke-width: 0.619677"/>
     <use xlink:href="#m507c50bbcf" x="227.790565" y="349.014459" style="fill: #4c72b0; fill-opacity: 0.6; stroke: #ffffff; stroke-opacity: 0.6; stroke-width: 0.619677"/>
     <use xlink:href="#m507c50bbcf" x="234.447242" y="343.651576" style="fill: #4c72b0; fill-opacity: 0.6; stroke: #ffffff; stroke-opacity: 0.6; stroke-width: 0.619677"/>
     <use xlink:href="#m507c50bbcf" x="236.289285" y="332.325903" style="fill: #4c72b0; fill-opacity: 0.6; stroke: #ffffff; stroke-opacity: 0.6; stroke-width: 0.619677"/>
     <use xlink:href="#m507c50bbcf" x="284.099307" y="305.411785" style="fill: #4c72b0; fill-opacity: 0.6; stroke: #ffffff; stroke-opacity: 0.6; stroke-width: 0.619677"/>
     <use xlink:href="#m507c50bbcf" x="289.495461" y="301.87622" style="fill: #4c72b0; fill-opacity: 0.6; stroke: #ffffff; stroke-opacity: 0.6; stroke-width: 0.619677"/>
     <use xlink:href="#m507c50bbcf" x="303.637335" y="297.29768" style="fill: #4c72b0; fill-opacity: 0.6; stroke: #ffffff; stroke-opacity: 0.6; stroke-width: 0.619677"/>
     <use xlink:href="#m507c50bbcf" x="341.882496" y="275.667369" style="fill: #4c72b0; fill-opacity: 0.6; stroke: #ffffff; stroke-opacity: 0.6; stroke-width: 0.619677"/>
     <use xlink:href="#m507c50bbcf" x="350.289637" y="270.647168" style="fill: #4c72b0; fill-opacity: 0.6; stroke: #ffffff; stroke-opacity: 0.6; stroke-width: 0.619677"/>
     <use xlink:href="#m507c50bbcf" x="355.768066" y="264.401555" style="fill: #4c72b0; fill-opacity: 0.6; stroke: #ffffff; stroke-opacity: 0.6; stroke-width: 0.619677"/>
     <use xlink:href="#m507c50bbcf" x="336.447051" y="251.519303" style="fill: #4c72b0; fill-opacity: 0.6; stroke: #ffffff; stroke-opacity: 0.6; stroke-width: 0.619677"/>
     <use xlink:href="#m507c50bbcf" x="349.063143" y="248.941947" style="fill: #4c72b0; fill-opacity: 0.6; stroke: #ffffff; stroke-opacity: 0.6; stroke-width: 0.619677"/>
     <use xlink:href="#m507c50bbcf" x="353.680953" y="246.741037" style="fill: #4c72b0; fill-opacity: 0.6; stroke: #ffffff; stroke-opacity: 0.6; stroke-width: 0.619677"/>
     <use xlink:href="#m507c50bbcf" x="354.442561" y="244.32481" style="fill: #4c72b0; fill-opacity: 0.6; stroke: #ffffff; stroke-opacity: 0.6; stroke-width: 0.619677"/>
     <use xlink:href="#m507c50bbcf" x="367.625351" y="223.82186" style="fill: #4c72b0; fill-opacity: 0.6; stroke: #ffffff; stroke-opacity: 0.6; stroke-width: 0.619677"/>
     <use xlink:href="#m507c50bbcf" x="369.840262" y="219.61794" style="fill: #4c72b0; fill-opacity: 0.6; stroke: #ffffff; stroke-opacity: 0.6; stroke-width: 0.619677"/>
     <use xlink:href="#m507c50bbcf" x="423.591891" y="214.467515" style="fill: #4c72b0; fill-opacity: 0.6; stroke: #ffffff; stroke-opacity: 0.6; stroke-width: 0.619677"/>
     <use xlink:href="#m507c50bbcf" x="452.286091" y="210.431792" style="fill: #4c72b0; fill-opacity: 0.6; stroke: #ffffff; stroke-opacity: 0.6; stroke-width: 0.619677"/>
     <use xlink:href="#m507c50bbcf" x="451.147173" y="202.294936" style="fill: #4c72b0; fill-opacity: 0.6; stroke: #ffffff; stroke-opacity: 0.6; stroke-width: 0.619677"/>
     <use xlink:href="#m507c50bbcf" x="397.044716" y="155.315294" style="fill: #4c72b0; fill-opacity: 0.6; stroke: #ffffff; stroke-opacity: 0.6; stroke-width: 0.619677"/>
     <use xlink:href="#m507c50bbcf" x="424.283449" y="133.822394" style="fill: #4c72b0; fill-opacity: 0.6; stroke: #ffffff; stroke-opacity: 0.6; stroke-width: 0.619677"/>
     <use xlink:href="#m507c50bbcf" x="412.450377" y="125.351091" style="fill: #4c72b0; fill-opacity: 0.6; stroke: #ffffff; stroke-opacity: 0.6; stroke-width: 0.619677"/>
    </g>
   </g>
   <g id="PolyCollection_1">
    <defs>
     <path id="m4438822569" d="M 99.985052 -127.467641 
L 99.985052 -106.442653 
L 103.543648 -109.780986 
L 107.102245 -113.063929 
L 110.660841 -116.324303 
L 114.219437 -119.637552 
L 117.778034 -123.00813 
L 121.33663 -126.379496 
L 124.895226 -129.811994 
L 128.453823 -133.149374 
L 132.012419 -136.487235 
L 135.571015 -139.824086 
L 139.129612 -143.119445 
L 142.688208 -146.323667 
L 146.246805 -149.605618 
L 149.805401 -152.889208 
L 153.363997 -156.149548 
L 156.922594 -159.369506 
L 160.48119 -162.582338 
L 164.039786 -165.791038 
L 167.598383 -169.08745 
L 171.156979 -172.329357 
L 174.715575 -175.57966 
L 178.274172 -178.80177 
L 181.832768 -181.936386 
L 185.391364 -185.110475 
L 188.949961 -188.192698 
L 192.508557 -191.283663 
L 196.067153 -194.351725 
L 199.62575 -197.472569 
L 203.184346 -200.470304 
L 206.742943 -203.4425 
L 210.301539 -206.406213 
L 213.860135 -209.239911 
L 217.418732 -212.107012 
L 220.977328 -215.062966 
L 224.535924 -217.912536 
L 228.094521 -220.829184 
L 231.653117 -223.726563 
L 235.211713 -226.630448 
L 238.77031 -229.515516 
L 242.328906 -232.274577 
L 245.887502 -235.13755 
L 249.446099 -237.988233 
L 253.004695 -240.829057 
L 256.563291 -243.649039 
L 260.121888 -246.519053 
L 263.680484 -249.281195 
L 267.239081 -252.049888 
L 270.797677 -254.850172 
L 274.356273 -257.650455 
L 277.91487 -260.403582 
L 281.473466 -263.132806 
L 285.032062 -265.86203 
L 288.590659 -268.522485 
L 292.149255 -271.266098 
L 295.707851 -274.054994 
L 299.266448 -276.854336 
L 302.825044 -279.593909 
L 306.38364 -282.286574 
L 309.942237 -285.073244 
L 313.500833 -287.785654 
L 317.059429 -290.498064 
L 320.618026 -293.21136 
L 324.176622 -296.023588 
L 327.735219 -298.808845 
L 331.293815 -301.603254 
L 334.852411 -304.428759 
L 338.411008 -307.252053 
L 341.969604 -309.960847 
L 345.5282 -312.735593 
L 349.086797 -315.458662 
L 352.645393 -318.181732 
L 356.203989 -320.909416 
L 359.762586 -323.684946 
L 363.321182 -326.461282 
L 366.879778 -329.237619 
L 370.438375 -332.013955 
L 373.996971 -334.790292 
L 377.555567 -337.566628 
L 381.114164 -340.342965 
L 384.67276 -343.119301 
L 388.231357 -345.895638 
L 391.789953 -348.633622 
L 395.348549 -351.407386 
L 398.907146 -354.128946 
L 402.465742 -356.835225 
L 406.024338 -359.541505 
L 409.582935 -362.248764 
L 413.141531 -364.957576 
L 416.700127 -367.658446 
L 420.258724 -370.364741 
L 423.81732 -373.047196 
L 427.375916 -375.753771 
L 430.934513 -378.493868 
L 434.493109 -381.200238 
L 438.051705 -383.906929 
L 441.610302 -386.615101 
L 445.168898 -389.323273 
L 448.727495 -392.056163 
L 452.286091 -394.809807 
L 452.286091 -440.867605 
L 452.286091 -440.867605 
L 448.727495 -437.551375 
L 445.168898 -434.160137 
L 441.610302 -430.765031 
L 438.051705 -427.36954 
L 434.493109 -423.973943 
L 430.934513 -420.578233 
L 427.375916 -417.182523 
L 423.81732 -413.786813 
L 420.258724 -410.391103 
L 416.700127 -406.994651 
L 413.141531 -403.597693 
L 409.582935 -400.200734 
L 406.024338 -396.803775 
L 402.465742 -393.432366 
L 398.907146 -390.080641 
L 395.348549 -386.728917 
L 391.789953 -383.377192 
L 388.231357 -380.025467 
L 384.67276 -376.673742 
L 381.114164 -373.327093 
L 377.555567 -370.017255 
L 373.996971 -366.707417 
L 370.438375 -363.375342 
L 366.879778 -359.982392 
L 363.321182 -356.588468 
L 359.762586 -353.236386 
L 356.203989 -349.876687 
L 352.645393 -346.516206 
L 349.086797 -343.162212 
L 345.5282 -339.886555 
L 341.969604 -336.511688 
L 338.411008 -333.132543 
L 334.852411 -329.761328 
L 331.293815 -326.475418 
L 327.735219 -323.192305 
L 324.176622 -319.905826 
L 320.618026 -316.572206 
L 317.059429 -313.20935 
L 313.500833 -309.908283 
L 309.942237 -306.580846 
L 306.38364 -303.245648 
L 302.825044 -299.905415 
L 299.266448 -296.57238 
L 295.707851 -293.239344 
L 292.149255 -289.935436 
L 288.590659 -286.653222 
L 285.032062 -283.371008 
L 281.473466 -280.091831 
L 277.91487 -276.818361 
L 274.356273 -273.529599 
L 270.797677 -270.221761 
L 267.239081 -266.846555 
L 263.680484 -263.623227 
L 260.121888 -260.365209 
L 256.563291 -257.069314 
L 253.004695 -253.827349 
L 249.446099 -250.574522 
L 245.887502 -247.39633 
L 242.328906 -244.033573 
L 238.77031 -240.713754 
L 235.211713 -237.538741 
L 231.653117 -234.348409 
L 228.094521 -231.124216 
L 224.535924 -227.982198 
L 220.977328 -224.746844 
L 217.418732 -221.756493 
L 213.860135 -218.729648 
L 210.301539 -215.490503 
L 206.742943 -212.469011 
L 203.184346 -209.419327 
L 199.62575 -206.383722 
L 196.067153 -203.294739 
L 192.508557 -200.381396 
L 188.949961 -197.460577 
L 185.391364 -194.631964 
L 181.832768 -191.727149 
L 178.274172 -188.88525 
L 174.715575 -186.046821 
L 171.156979 -183.127492 
L 167.598383 -180.297786 
L 164.039786 -177.593384 
L 160.48119 -174.700034 
L 156.922594 -171.858328 
L 153.363997 -169.158715 
L 149.805401 -166.426043 
L 146.246805 -163.569177 
L 142.688208 -160.661951 
L 139.129612 -157.78033 
L 135.571015 -154.966723 
L 132.012419 -152.067574 
L 128.453823 -149.342095 
L 124.895226 -146.567976 
L 121.33663 -143.827545 
L 117.778034 -141.087114 
L 114.219437 -138.346682 
L 110.660841 -135.661364 
L 107.102245 -133.06066 
L 103.543648 -130.253094 
L 99.985052 -127.467641 
z
" style="stroke: #ffffff; stroke-opacity: 0.15"/>
    </defs>
    <g clip-path="url(#pa2d8422935)">
     <use xlink:href="#m4438822569" x="0" y="576" style="fill: #4c72b0; fill-opacity: 0.15; stroke: #ffffff; stroke-opacity: 0.15"/>
    </g>
   </g>
   <g id="line2d_12">
    <path d="M 99.985052 458.56331 
L 103.543648 455.548091 
L 107.102245 452.532872 
L 110.660841 449.517653 
L 114.219437 446.502434 
L 117.778034 443.487214 
L 121.33663 440.471995 
L 124.895226 437.456776 
L 128.453823 434.441557 
L 132.012419 431.426338 
L 135.571015 428.411119 
L 139.129612 425.3959 
L 142.688208 422.380681 
L 146.246805 419.365462 
L 149.805401 416.350243 
L 153.363997 413.335023 
L 156.922594 410.319804 
L 160.48119 407.304585 
L 164.039786 404.289366 
L 167.598383 401.274147 
L 171.156979 398.258928 
L 174.715575 395.243709 
L 178.274172 392.22849 
L 181.832768 389.213271 
L 185.391364 386.198052 
L 188.949961 383.182832 
L 192.508557 380.167613 
L 196.067153 377.152394 
L 199.62575 374.137175 
L 203.184346 371.121956 
L 206.742943 368.106737 
L 210.301539 365.091518 
L 213.860135 362.076299 
L 217.418732 359.06108 
L 220.977328 356.045861 
L 224.535924 353.030642 
L 228.094521 350.015422 
L 231.653117 347.000203 
L 235.211713 343.984984 
L 238.77031 340.969765 
L 242.328906 337.954546 
L 245.887502 334.939327 
L 249.446099 331.924108 
L 253.004695 328.908889 
L 256.563291 325.89367 
L 260.121888 322.878451 
L 263.680484 319.863231 
L 267.239081 316.848012 
L 270.797677 313.832793 
L 274.356273 310.817574 
L 277.91487 307.802355 
L 281.473466 304.787136 
L 285.032062 301.771917 
L 288.590659 298.756698 
L 292.149255 295.741479 
L 295.707851 292.72626 
L 299.266448 289.71104 
L 302.825044 286.695821 
L 306.38364 283.680602 
L 309.942237 280.665383 
L 313.500833 277.650164 
L 317.059429 274.634945 
L 320.618026 271.619726 
L 324.176622 268.604507 
L 327.735219 265.589288 
L 331.293815 262.574069 
L 334.852411 259.558849 
L 338.411008 256.54363 
L 341.969604 253.528411 
L 345.5282 250.513192 
L 349.086797 247.497973 
L 352.645393 244.482754 
L 356.203989 241.467535 
L 359.762586 238.452316 
L 363.321182 235.437097 
L 366.879778 232.421878 
L 370.438375 229.406658 
L 373.996971 226.391439 
L 377.555567 223.37622 
L 381.114164 220.361001 
L 384.67276 217.345782 
L 388.231357 214.330563 
L 391.789953 211.315344 
L 395.348549 208.300125 
L 398.907146 205.284906 
L 402.465742 202.269687 
L 406.024338 199.254468 
L 409.582935 196.239248 
L 413.141531 193.224029 
L 416.700127 190.20881 
L 420.258724 187.193591 
L 423.81732 184.178372 
L 427.375916 181.163153 
L 430.934513 178.147934 
L 434.493109 175.132715 
L 438.051705 172.117496 
L 441.610302 169.102277 
L 445.168898 166.087057 
L 448.727495 163.071838 
L 452.286091 160.056619 
" clip-path="url(#pa2d8422935)" style="fill: none; stroke: #4c72b0; stroke-width: 2; stroke-linecap: round"/>
   </g>
   <g id="line2d_13">
    <path d="M 99.985052 456.740494 
L 452.286091 162.572701 
" clip-path="url(#pa2d8422935)" style="fill: none; stroke-dasharray: 9.25,4; stroke-dashoffset: 0; stroke: #000000; stroke-opacity: 0.7; stroke-width: 2.5"/>
   </g>
   <g id="patch_3">
    <path d="M 82.37 501.46 
L 82.37 107.441143 
" style="fill: none; stroke: #cccccc; stroke-width: 2; stroke-linejoin: miter; stroke-linecap: square"/>
   </g>
   <g id="patch_4">
    <path d="M 82.37 501.46 
L 469.901143 501.46 
" style="fill: none; stroke: #cccccc; stroke-width: 2; stroke-linejoin: miter; stroke-linecap: square"/>
   </g>
   <g id="text_14">
    <g id="patch_5">
     <path d="M 357.608654 466.258114 
L 431.148029 466.258114 
Q 435.348029 466.258114 435.348029 462.058114 
L 435.348029 449.254677 
Q 435.348029 445.054677 431.148029 445.054677 
L 357.608654 445.054677 
Q 353.408654 445.054677 353.408654 449.254677 
L 353.408654 462.058114 
Q 353.408654 466.258114 357.608654 466.258114 
z
" style="fill: #ffffff; stroke: #000000; stroke-linejoin: miter"/>
    </g>
    <!-- MAE = 2.07 -->
    <g style="fill: #262626" transform="translate(357.608654 459.275614) scale(0.14 -0.14)">
     <defs>
      <path id="ArialMT-4d" d="M 475 0 
L 475 4581 
L 1388 4581 
L 2472 1338 
Q 2622 884 2691 659 
Q 2769 909 2934 1394 
L 4031 4581 
L 4847 4581 
L 4847 0 
L 4263 0 
L 4263 3834 
L 2931 0 
L 2384 0 
L 1059 3900 
L 1059 0 
L 475 0 
z
" transform="scale(0.015625)"/>
      <path id="ArialMT-41" d="M -9 0 
L 1750 4581 
L 2403 4581 
L 4278 0 
L 3588 0 
L 3053 1388 
L 1138 1388 
L 634 0 
L -9 0 
z
M 1313 1881 
L 2866 1881 
L 2388 3150 
Q 2169 3728 2063 4100 
Q 1975 3659 1816 3225 
L 1313 1881 
z
" transform="scale(0.015625)"/>
      <path id="ArialMT-45" d="M 506 0 
L 506 4581 
L 3819 4581 
L 3819 4041 
L 1113 4041 
L 1113 2638 
L 3647 2638 
L 3647 2100 
L 1113 2100 
L 1113 541 
L 3925 541 
L 3925 0 
L 506 0 
z
" transform="scale(0.015625)"/>
      <path id="ArialMT-3d" d="M 3381 2694 
L 356 2694 
L 356 3219 
L 3381 3219 
L 3381 2694 
z
M 3381 1303 
L 356 1303 
L 356 1828 
L 3381 1828 
L 3381 1303 
z
" transform="scale(0.015625)"/>
      <path id="ArialMT-2e" d="M 581 0 
L 581 641 
L 1222 641 
L 1222 0 
L 581 0 
z
" transform="scale(0.015625)"/>
      <path id="ArialMT-37" d="M 303 3981 
L 303 4522 
L 3269 4522 
L 3269 4084 
Q 2831 3619 2401 2847 
Q 1972 2075 1738 1259 
Q 1569 684 1522 0 
L 944 0 
Q 953 541 1156 1306 
Q 1359 2072 1739 2783 
Q 2119 3494 2547 3981 
L 303 3981 
z
" transform="scale(0.015625)"/>
     </defs>
     <use xlink:href="#ArialMT-4d"/>
     <use xlink:href="#ArialMT-41" x="83.300781"/>
     <use xlink:href="#ArialMT-45" x="150"/>
     <use xlink:href="#ArialMT-20" x="216.699219"/>
     <use xlink:href="#ArialMT-3d" x="244.482422"/>
     <use xlink:href="#ArialMT-20" x="302.880859"/>
     <use xlink:href="#ArialMT-32" x="330.664062"/>
     <use xlink:href="#ArialMT-2e" x="386.279297"/>
     <use xlink:href="#ArialMT-30" x="414.0625"/>
     <use xlink:href="#ArialMT-37" x="469.677734"/>
    </g>
   </g>
   <g id="text_15">
    <g id="patch_6">
     <path d="M 362.828029 485.959057 
L 431.148029 485.959057 
Q 435.348029 485.959057 435.348029 481.759057 
L 435.348029 468.739057 
Q 435.348029 464.539057 431.148029 464.539057 
L 362.828029 464.539057 
Q 358.628029 464.539057 358.628029 468.739057 
L 358.628029 481.759057 
Q 358.628029 485.959057 362.828029 485.959057 
z
" style="fill: #ffffff; stroke: #000000; stroke-linejoin: miter"/>
    </g>
    <!-- $R^2$ = 0.938 -->
    <g style="fill: #262626" transform="translate(362.828029 478.976557) scale(0.14 -0.14)">
     <defs>
      <path id="DejaVuSans-Oblique-52" d="M 1613 4147 
L 1294 2491 
L 2106 2491 
Q 2584 2491 2879 2755 
Q 3175 3019 3175 3444 
Q 3175 3784 2976 3965 
Q 2778 4147 2406 4147 
L 1613 4147 
z
M 2772 2241 
Q 2972 2194 3105 2009 
Q 3238 1825 3413 1275 
L 3809 0 
L 3144 0 
L 2778 1197 
Q 2638 1659 2453 1815 
Q 2269 1972 1888 1972 
L 1191 1972 
L 806 0 
L 172 0 
L 1081 4666 
L 2503 4666 
Q 3150 4666 3495 4373 
Q 3841 4081 3841 3531 
Q 3841 3044 3547 2687 
Q 3253 2331 2772 2241 
z
" transform="scale(0.015625)"/>
      <path id="DejaVuSans-32" d="M 1228 531 
L 3431 531 
L 3431 0 
L 469 0 
L 469 531 
Q 828 903 1448 1529 
Q 2069 2156 2228 2338 
Q 2531 2678 2651 2914 
Q 2772 3150 2772 3378 
Q 2772 3750 2511 3984 
Q 2250 4219 1831 4219 
Q 1534 4219 1204 4116 
Q 875 4013 500 3803 
L 500 4441 
Q 881 4594 1212 4672 
Q 1544 4750 1819 4750 
Q 2544 4750 2975 4387 
Q 3406 4025 3406 3419 
Q 3406 3131 3298 2873 
Q 3191 2616 2906 2266 
Q 2828 2175 2409 1742 
Q 1991 1309 1228 531 
z
" transform="scale(0.015625)"/>
      <path id="ArialMT-39" d="M 350 1059 
L 891 1109 
Q 959 728 1153 556 
Q 1347 384 1650 384 
Q 1909 384 2104 503 
Q 2300 622 2425 820 
Q 2550 1019 2634 1356 
Q 2719 1694 2719 2044 
Q 2719 2081 2716 2156 
Q 2547 1888 2255 1720 
Q 1963 1553 1622 1553 
Q 1053 1553 659 1965 
Q 266 2378 266 3053 
Q 266 3750 677 4175 
Q 1088 4600 1706 4600 
Q 2153 4600 2523 4359 
Q 2894 4119 3086 3673 
Q 3278 3228 3278 2384 
Q 3278 1506 3087 986 
Q 2897 466 2520 194 
Q 2144 -78 1638 -78 
Q 1100 -78 759 220 
Q 419 519 350 1059 
z
M 2653 3081 
Q 2653 3566 2395 3850 
Q 2138 4134 1775 4134 
Q 1400 4134 1122 3828 
Q 844 3522 844 3034 
Q 844 2597 1108 2323 
Q 1372 2050 1759 2050 
Q 2150 2050 2401 2323 
Q 2653 2597 2653 3081 
z
" transform="scale(0.015625)"/>
      <path id="ArialMT-38" d="M 1131 2484 
Q 781 2613 612 2850 
Q 444 3088 444 3419 
Q 444 3919 803 4259 
Q 1163 4600 1759 4600 
Q 2359 4600 2725 4251 
Q 3091 3903 3091 3403 
Q 3091 3084 2923 2848 
Q 2756 2613 2416 2484 
Q 2838 2347 3058 2040 
Q 3278 1734 3278 1309 
Q 3278 722 2862 322 
Q 2447 -78 1769 -78 
Q 1091 -78 675 323 
Q 259 725 259 1325 
Q 259 1772 486 2073 
Q 713 2375 1131 2484 
z
M 1019 3438 
Q 1019 3113 1228 2906 
Q 1438 2700 1772 2700 
Q 2097 2700 2305 2904 
Q 2513 3109 2513 3406 
Q 2513 3716 2298 3927 
Q 2084 4138 1766 4138 
Q 1444 4138 1231 3931 
Q 1019 3725 1019 3438 
z
M 838 1322 
Q 838 1081 952 856 
Q 1066 631 1291 507 
Q 1516 384 1775 384 
Q 2178 384 2440 643 
Q 2703 903 2703 1303 
Q 2703 1709 2433 1975 
Q 2163 2241 1756 2241 
Q 1359 2241 1098 1978 
Q 838 1716 838 1322 
z
" transform="scale(0.015625)"/>
     </defs>
     <use xlink:href="#DejaVuSans-Oblique-52" transform="translate(0 0.765625)"/>
     <use xlink:href="#DejaVuSans-32" transform="translate(76.499193 39.046875) scale(0.7)"/>
     <use xlink:href="#ArialMT-20" transform="translate(123.769701 0.765625)"/>
     <use xlink:href="#ArialMT-3d" transform="translate(151.552904 0.765625)"/>
     <use xlink:href="#ArialMT-20" transform="translate(209.951341 0.765625)"/>
     <use xlink:href="#ArialMT-30" transform="translate(237.734544 0.765625)"/>
     <use xlink:href="#ArialMT-2e" transform="translate(293.349779 0.765625)"/>
     <use xlink:href="#ArialMT-39" transform="translate(321.132982 0.765625)"/>
     <use xlink:href="#ArialMT-33" transform="translate(376.748216 0.765625)"/>
     <use xlink:href="#ArialMT-38" transform="translate(432.363451 0.765625)"/>
    </g>
   </g>
   <g id="legend_1">
    <g id="patch_7">
     <path d="M 97.77 187.796143 
L 327.144063 187.796143 
Q 331.544062 187.796143 331.544062 183.396143 
L 331.544062 122.841143 
Q 331.544062 118.441143 327.144063 118.441143 
L 97.77 118.441143 
Q 93.37 118.441143 93.37 122.841143 
L 93.37 183.396143 
Q 93.37 187.796143 97.77 187.796143 
z
" style="fill: #ffffff; opacity: 0.8; stroke: #cccccc; stroke-linejoin: miter"/>
    </g>
    <g id="line2d_14">
     <path d="M 102.17 135.28833 
L 124.17 135.28833 
L 146.17 135.28833 
" style="fill: none; stroke: #4c72b0; stroke-width: 2; stroke-linecap: round"/>
    </g>
    <g id="text_16">
     <!-- Regression Line -->
     <g style="fill: #262626" transform="translate(163.77 142.98833) scale(0.22 -0.22)">
      <defs>
       <path id="ArialMT-52" d="M 503 0 
L 503 4581 
L 2534 4581 
Q 3147 4581 3465 4457 
Q 3784 4334 3975 4021 
Q 4166 3709 4166 3331 
Q 4166 2844 3850 2509 
Q 3534 2175 2875 2084 
Q 3116 1969 3241 1856 
Q 3506 1613 3744 1247 
L 4541 0 
L 3778 0 
L 3172 953 
Q 2906 1366 2734 1584 
Q 2563 1803 2427 1890 
Q 2291 1978 2150 2013 
Q 2047 2034 1813 2034 
L 1109 2034 
L 1109 0 
L 503 0 
z
M 1109 2559 
L 2413 2559 
Q 2828 2559 3062 2645 
Q 3297 2731 3419 2920 
Q 3541 3109 3541 3331 
Q 3541 3656 3305 3865 
Q 3069 4075 2559 4075 
L 1109 4075 
L 1109 2559 
z
" transform="scale(0.015625)"/>
       <path id="ArialMT-67" d="M 319 -275 
L 866 -356 
Q 900 -609 1056 -725 
Q 1266 -881 1628 -881 
Q 2019 -881 2231 -725 
Q 2444 -569 2519 -288 
Q 2563 -116 2559 434 
Q 2191 0 1641 0 
Q 956 0 581 494 
Q 206 988 206 1678 
Q 206 2153 378 2554 
Q 550 2956 876 3175 
Q 1203 3394 1644 3394 
Q 2231 3394 2613 2919 
L 2613 3319 
L 3131 3319 
L 3131 450 
Q 3131 -325 2973 -648 
Q 2816 -972 2473 -1159 
Q 2131 -1347 1631 -1347 
Q 1038 -1347 672 -1080 
Q 306 -813 319 -275 
z
M 784 1719 
Q 784 1066 1043 766 
Q 1303 466 1694 466 
Q 2081 466 2343 764 
Q 2606 1063 2606 1700 
Q 2606 2309 2336 2618 
Q 2066 2928 1684 2928 
Q 1309 2928 1046 2623 
Q 784 2319 784 1719 
z
" transform="scale(0.015625)"/>
       <path id="ArialMT-6f" d="M 213 1659 
Q 213 2581 725 3025 
Q 1153 3394 1769 3394 
Q 2453 3394 2887 2945 
Q 3322 2497 3322 1706 
Q 3322 1066 3130 698 
Q 2938 331 2570 128 
Q 2203 -75 1769 -75 
Q 1072 -75 642 372 
Q 213 819 213 1659 
z
M 791 1659 
Q 791 1022 1069 705 
Q 1347 388 1769 388 
Q 2188 388 2466 706 
Q 2744 1025 2744 1678 
Q 2744 2294 2464 2611 
Q 2184 2928 1769 2928 
Q 1347 2928 1069 2612 
Q 791 2297 791 1659 
z
" transform="scale(0.015625)"/>
       <path id="ArialMT-6e" d="M 422 0 
L 422 3319 
L 928 3319 
L 928 2847 
Q 1294 3394 1984 3394 
Q 2284 3394 2536 3286 
Q 2788 3178 2913 3003 
Q 3038 2828 3088 2588 
Q 3119 2431 3119 2041 
L 3119 0 
L 2556 0 
L 2556 2019 
Q 2556 2363 2490 2533 
Q 2425 2703 2258 2804 
Q 2091 2906 1866 2906 
Q 1506 2906 1245 2678 
Q 984 2450 984 1813 
L 984 0 
L 422 0 
z
" transform="scale(0.015625)"/>
       <path id="ArialMT-4c" d="M 469 0 
L 469 4581 
L 1075 4581 
L 1075 541 
L 3331 541 
L 3331 0 
L 469 0 
z
" transform="scale(0.015625)"/>
      </defs>
      <use xlink:href="#ArialMT-52"/>
      <use xlink:href="#ArialMT-65" x="72.216797"/>
      <use xlink:href="#ArialMT-67" x="127.832031"/>
      <use xlink:href="#ArialMT-72" x="183.447266"/>
      <use xlink:href="#ArialMT-65" x="216.748047"/>
      <use xlink:href="#ArialMT-73" x="272.363281"/>
      <use xlink:href="#ArialMT-73" x="322.363281"/>
      <use xlink:href="#ArialMT-69" x="372.363281"/>
      <use xlink:href="#ArialMT-6f" x="394.580078"/>
      <use xlink:href="#ArialMT-6e" x="450.195312"/>
      <use xlink:href="#ArialMT-20" x="505.810547"/>
      <use xlink:href="#ArialMT-4c" x="533.59375"/>
      <use xlink:href="#ArialMT-69" x="589.208984"/>
      <use xlink:href="#ArialMT-6e" x="611.425781"/>
      <use xlink:href="#ArialMT-65" x="667.041016"/>
     </g>
    </g>
    <g id="line2d_15">
     <path d="M 102.17 166.66583 
L 124.17 166.66583 
L 146.17 166.66583 
" style="fill: none; stroke-dasharray: 9.25,4; stroke-dashoffset: 0; stroke: #000000; stroke-opacity: 0.7; stroke-width: 2.5"/>
    </g>
    <g id="text_17">
     <!-- x=y -->
     <g style="fill: #262626" transform="translate(163.77 174.36583) scale(0.22 -0.22)">
      <defs>
       <path id="ArialMT-78" d="M 47 0 
L 1259 1725 
L 138 3319 
L 841 3319 
L 1350 2541 
Q 1494 2319 1581 2169 
Q 1719 2375 1834 2534 
L 2394 3319 
L 3066 3319 
L 1919 1756 
L 3153 0 
L 2463 0 
L 1781 1031 
L 1600 1309 
L 728 0 
L 47 0 
z
" transform="scale(0.015625)"/>
       <path id="ArialMT-79" d="M 397 -1278 
L 334 -750 
Q 519 -800 656 -800 
Q 844 -800 956 -737 
Q 1069 -675 1141 -563 
Q 1194 -478 1313 -144 
Q 1328 -97 1363 -6 
L 103 3319 
L 709 3319 
L 1400 1397 
Q 1534 1031 1641 628 
Q 1738 1016 1872 1384 
L 2581 3319 
L 3144 3319 
L 1881 -56 
Q 1678 -603 1566 -809 
Q 1416 -1088 1222 -1217 
Q 1028 -1347 759 -1347 
Q 597 -1347 397 -1278 
z
" transform="scale(0.015625)"/>
      </defs>
      <use xlink:href="#ArialMT-78"/>
      <use xlink:href="#ArialMT-3d" x="50"/>
      <use xlink:href="#ArialMT-79" x="108.398438"/>
     </g>
    </g>
   </g>
  </g>
  <g id="axes_2">
   <g id="patch_8">
    <path d="M 82.37 93.854286 
L 469.901143 93.854286 
L 469.901143 25.92 
L 82.37 25.92 
z
" style="fill: #ffffff"/>
   </g>
   <g id="matplotlib.axis_3">
    <g id="xtick_6">
     <g id="line2d_16">
      <path d="M 82.967519 93.854286 
L 82.967519 25.92 
" clip-path="url(#p664f1e74a2)" style="fill: none; stroke-dasharray: 3.7,1.6; stroke-dashoffset: 0; stroke: #cccccc; stroke-opacity: 0.8"/>
     </g>
    </g>
    <g id="xtick_7">
     <g id="line2d_17">
      <path d="M 166.386368 93.854286 
L 166.386368 25.92 
" clip-path="url(#p664f1e74a2)" style="fill: none; stroke-dasharray: 3.7,1.6; stroke-dashoffset: 0; stroke: #cccccc; stroke-opacity: 0.8"/>
     </g>
    </g>
    <g id="xtick_8">
     <g id="line2d_18">
      <path d="M 249.805218 93.854286 
L 249.805218 25.92 
" clip-path="url(#p664f1e74a2)" style="fill: none; stroke-dasharray: 3.7,1.6; stroke-dashoffset: 0; stroke: #cccccc; stroke-opacity: 0.8"/>
     </g>
    </g>
    <g id="xtick_9">
     <g id="line2d_19">
      <path d="M 333.224067 93.854286 
L 333.224067 25.92 
" clip-path="url(#p664f1e74a2)" style="fill: none; stroke-dasharray: 3.7,1.6; stroke-dashoffset: 0; stroke: #cccccc; stroke-opacity: 0.8"/>
     </g>
    </g>
    <g id="xtick_10">
     <g id="line2d_20">
      <path d="M 416.642917 93.854286 
L 416.642917 25.92 
" clip-path="url(#p664f1e74a2)" style="fill: none; stroke-dasharray: 3.7,1.6; stroke-dashoffset: 0; stroke: #cccccc; stroke-opacity: 0.8"/>
     </g>
    </g>
   </g>
   <g id="matplotlib.axis_4">
    <g id="ytick_7"/>
    <g id="ytick_8"/>
   </g>
   <g id="patch_9">
    <path d="M 99.985052 93.854286 
L 150.313772 93.854286 
L 150.313772 44.085578 
L 99.985052 44.085578 
z
" clip-path="url(#p664f1e74a2)" style="fill: #b4c7e7; fill-opacity: 0.6; stroke: #ffffff; stroke-linejoin: miter"/>
   </g>
   <g id="patch_10">
    <path d="M 150.313772 93.854286 
L 200.642492 93.854286 
L 200.642492 49.062449 
L 150.313772 49.062449 
z
" clip-path="url(#p664f1e74a2)" style="fill: #b4c7e7; fill-opacity: 0.6; stroke: #ffffff; stroke-linejoin: miter"/>
   </g>
   <g id="patch_11">
    <path d="M 200.642492 93.854286 
L 250.971212 93.854286 
L 250.971212 29.154966 
L 200.642492 29.154966 
z
" clip-path="url(#p664f1e74a2)" style="fill: #b4c7e7; fill-opacity: 0.6; stroke: #ffffff; stroke-linejoin: miter"/>
   </g>
   <g id="patch_12">
    <path d="M 250.971212 93.854286 
L 301.299931 93.854286 
L 301.299931 83.900544 
L 250.971212 83.900544 
z
" clip-path="url(#p664f1e74a2)" style="fill: #b4c7e7; fill-opacity: 0.6; stroke: #ffffff; stroke-linejoin: miter"/>
   </g>
   <g id="patch_13">
    <path d="M 301.299931 93.854286 
L 351.628651 93.854286 
L 351.628651 68.969932 
L 301.299931 68.969932 
z
" clip-path="url(#p664f1e74a2)" style="fill: #b4c7e7; fill-opacity: 0.6; stroke: #ffffff; stroke-linejoin: miter"/>
   </g>
   <g id="patch_14">
    <path d="M 351.628651 93.854286 
L 401.957371 93.854286 
L 401.957371 63.993061 
L 351.628651 63.993061 
z
" clip-path="url(#p664f1e74a2)" style="fill: #b4c7e7; fill-opacity: 0.6; stroke: #ffffff; stroke-linejoin: miter"/>
   </g>
   <g id="patch_15">
    <path d="M 401.957371 93.854286 
L 452.286091 93.854286 
L 452.286091 68.969932 
L 401.957371 68.969932 
z
" clip-path="url(#p664f1e74a2)" style="fill: #b4c7e7; fill-opacity: 0.6; stroke: #ffffff; stroke-linejoin: miter"/>
   </g>
   <g id="patch_16">
    <path d="M 82.37 93.854286 
L 469.901143 93.854286 
" style="fill: none; stroke: #cccccc; stroke-width: 2; stroke-linejoin: miter; stroke-linecap: square"/>
   </g>
  </g>
  <g id="axes_3">
   <g id="patch_17">
    <path d="M 483.264286 501.46 
L 550.08 501.46 
L 550.08 107.441143 
L 483.264286 107.441143 
z
" style="fill: #ffffff"/>
   </g>
   <g id="matplotlib.axis_5">
    <g id="xtick_11"/>
    <g id="xtick_12"/>
   </g>
   <g id="matplotlib.axis_6">
    <g id="ytick_9">
     <g id="line2d_21">
      <path d="M 483.264286 470.949961 
L 550.08 470.949961 
" clip-path="url(#pfd3f6e1d94)" style="fill: none; stroke-dasharray: 3.7,1.6; stroke-dashoffset: 0; stroke: #cccccc; stroke-opacity: 0.8"/>
     </g>
    </g>
    <g id="ytick_10">
     <g id="line2d_22">
      <path d="M 483.264286 401.296068 
L 550.08 401.296068 
" clip-path="url(#pfd3f6e1d94)" style="fill: none; stroke-dasharray: 3.7,1.6; stroke-dashoffset: 0; stroke: #cccccc; stroke-opacity: 0.8"/>
     </g>
    </g>
    <g id="ytick_11">
     <g id="line2d_23">
      <path d="M 483.264286 331.642175 
L 550.08 331.642175 
" clip-path="url(#pfd3f6e1d94)" style="fill: none; stroke-dasharray: 3.7,1.6; stroke-dashoffset: 0; stroke: #cccccc; stroke-opacity: 0.8"/>
     </g>
    </g>
    <g id="ytick_12">
     <g id="line2d_24">
      <path d="M 483.264286 261.988282 
L 550.08 261.988282 
" clip-path="url(#pfd3f6e1d94)" style="fill: none; stroke-dasharray: 3.7,1.6; stroke-dashoffset: 0; stroke: #cccccc; stroke-opacity: 0.8"/>
     </g>
    </g>
    <g id="ytick_13">
     <g id="line2d_25">
      <path d="M 483.264286 192.334389 
L 550.08 192.334389 
" clip-path="url(#pfd3f6e1d94)" style="fill: none; stroke-dasharray: 3.7,1.6; stroke-dashoffset: 0; stroke: #cccccc; stroke-opacity: 0.8"/>
     </g>
    </g>
    <g id="ytick_14">
     <g id="line2d_26">
      <path d="M 483.264286 122.680497 
L 550.08 122.680497 
" clip-path="url(#pfd3f6e1d94)" style="fill: none; stroke-dasharray: 3.7,1.6; stroke-dashoffset: 0; stroke: #cccccc; stroke-opacity: 0.8"/>
     </g>
    </g>
   </g>
   <g id="patch_18">
    <path d="M 483.264286 483.550052 
L 522.423679 483.550052 
L 522.423679 432.378772 
L 483.264286 432.378772 
z
" clip-path="url(#pfd3f6e1d94)" style="fill: #b4c7e7; fill-opacity: 0.6; stroke: #ffffff; stroke-linejoin: miter"/>
   </g>
   <g id="patch_19">
    <path d="M 483.264286 432.378772 
L 537.108451 432.378772 
L 537.108451 381.207492 
L 483.264286 381.207492 
z
" clip-path="url(#pfd3f6e1d94)" style="fill: #b4c7e7; fill-opacity: 0.6; stroke: #ffffff; stroke-linejoin: miter"/>
   </g>
   <g id="patch_20">
    <path d="M 483.264286 381.207492 
L 546.898299 381.207492 
L 546.898299 330.036212 
L 483.264286 330.036212 
z
" clip-path="url(#pfd3f6e1d94)" style="fill: #b4c7e7; fill-opacity: 0.6; stroke: #ffffff; stroke-linejoin: miter"/>
   </g>
   <g id="patch_21">
    <path d="M 483.264286 330.036212 
L 497.949058 330.036212 
L 497.949058 278.864931 
L 483.264286 278.864931 
z
" clip-path="url(#pfd3f6e1d94)" style="fill: #b4c7e7; fill-opacity: 0.6; stroke: #ffffff; stroke-linejoin: miter"/>
   </g>
   <g id="patch_22">
    <path d="M 483.264286 278.864931 
L 517.528755 278.864931 
L 517.528755 227.693651 
L 483.264286 227.693651 
z
" clip-path="url(#pfd3f6e1d94)" style="fill: #b4c7e7; fill-opacity: 0.6; stroke: #ffffff; stroke-linejoin: miter"/>
   </g>
   <g id="patch_23">
    <path d="M 483.264286 227.693651 
L 507.738906 227.693651 
L 507.738906 176.522371 
L 483.264286 176.522371 
z
" clip-path="url(#pfd3f6e1d94)" style="fill: #b4c7e7; fill-opacity: 0.6; stroke: #ffffff; stroke-linejoin: miter"/>
   </g>
   <g id="patch_24">
    <path d="M 483.264286 176.522371 
L 497.949058 176.522371 
L 497.949058 125.351091 
L 483.264286 125.351091 
z
" clip-path="url(#pfd3f6e1d94)" style="fill: #b4c7e7; fill-opacity: 0.6; stroke: #ffffff; stroke-linejoin: miter"/>
   </g>
   <g id="patch_25">
    <path d="M 483.264286 501.46 
L 483.264286 107.441143 
" style="fill: none; stroke: #cccccc; stroke-width: 2; stroke-linejoin: miter; stroke-linecap: square"/>
   </g>
  </g>
 </g>
 <defs>
  <clipPath id="pa2d8422935">
   <rect x="82.37" y="107.441143" width="387.531143" height="394.018857"/>
  </clipPath>
  <clipPath id="p664f1e74a2">
   <rect x="82.37" y="25.92" width="387.531143" height="67.934286"/>
  </clipPath>
  <clipPath id="pfd3f6e1d94">
   <rect x="483.264286" y="107.441143" width="66.815714" height="394.018857"/>
  </clipPath>
 </defs>
</svg>
